<?xml version="1.0" encoding="UTF-8"?>
<!-- Created with Inkscape (http://www.inkscape.org/) -->
<svg width="170.22mm" height="60.263mm" version="1.1" viewBox="0 0 170.22 60.263" xmlns="http://www.w3.org/2000/svg">
 <g transform="translate(-11.898 -31.072)">
  <g transform="matrix(.92733 0 0 .92733 24.719 40.162)" fill="#fd4f00">
   <path d="m26.371 33.477-0.552-0.1c-3.92-0.729-6.397-3.1-7.57-6.829-0.733-2.324 0.597-4.035 3.035-4.148 1.995-0.092 3.362 1.055 4.57 2.39 1.557 1.72 2.984 3.558 4.514 5.305 2.202 2.515 4.797 4.134 8.347 3.634 3.183-0.448 5.958-1.725 8.371-3.828 0.363-0.316 0.761-0.592 1.144-0.886l-0.241-0.284c-2.027 0.63-4.093 0.841-6.205 0.735-3.195-0.16-6.24-0.828-8.964-2.582-2.486-1.601-4.319-3.746-5.19-6.611-0.704-2.315 0.736-3.934 3.135-3.6 0.948 0.133 1.746 0.56 2.463 1.165 0.583 0.493 1.143 1.015 1.738 1.493 2.8 2.25 6.712 2.375 10.265-0.068-5.842-0.026-9.817-3.24-13.308-7.313-1.366-1.594-2.7-3.216-4.095-4.785-2.698-3.036-5.692-5.71-9.79-6.623-5.238-1.165-10.293-0.402-15.145 1.819-0.967 0.443-1.896 0.958-2.893 1.788 0.494 0 0.763 6e-3 1.032 0 2.446-0.064 4.28 1.023 5.602 3.024 0.962 1.457 1.415 3.104 1.761 4.798 0.513 2.515 0.247 5.078 0.544 7.605 0.761 6.494 4.08 11.026 10.26 13.346 2.267 0.852 4.591 1.135 7.172 0.555zm-15.62-29.625c-0.976 0.246-1.756-0.148-2.56-0.962 1.377-0.343 2.592-0.476 3.897-0.528-0.107 0.848-0.607 1.306-1.336 1.49zm32.002 37.924c-0.085-0.626-0.62-0.901-1.04-1.228-1.857-1.446-4.03-1.958-6.333-2-1.375-0.026-2.735-0.128-4.031-0.61-0.595-0.22-1.26-0.505-1.244-1.272 0.015-0.78 0.693-1 1.31-1.184 0.505-0.15 1.026-0.247 1.6-0.382-1.46-0.936-2.886-1.065-4.787-0.3-2.993 1.202-5.943 1.06-8.926-0.017-1.684-0.608-3.179-1.563-4.735-2.408l-0.077 0.057c1.29 2.115 3.034 3.817 5.004 5.271 3.793 2.8 7.936 4.471 12.784 3.73a66.714 66.714 0 0 1 4.722-0.556c1.98-0.16 3.866 0.398 5.753 0.899zm-9.14-30.345c-0.105-0.076-0.206-0.266-0.42-0.069 1.745 2.36 3.985 4.098 6.683 5.193 4.354 1.767 8.773 2.07 13.293 0.51 3.51-1.21 6.033-0.028 7.343 3.38 0.19-3.955-2.137-6.837-5.843-7.401-2.084-0.318-4.01 0.373-5.962 0.94-5.434 1.575-10.485 0.798-15.094-2.553zm27.085 15.425c0.708 0.059 1.416 0.123 2.124 0.185-1.6-1.405-3.55-1.517-5.523-1.404-3.003 0.17-5.167 1.903-7.14 3.972-1.739 1.824-3.31 3.87-5.903 4.604 0.043 0.078 0.054 0.117 0.066 0.117 0.35 5e-3 0.699 0.021 1.047 5e-3 3.768-0.17 7.317-0.965 10.14-3.7 0.89-0.86 1.685-1.817 2.544-2.71 0.716-0.746 1.584-1.159 2.645-1.07zm-8.753-4.67c-2.812 0.246-5.254 1.409-7.548 2.943-1.766 1.18-3.654 1.738-5.776 1.37-0.374-0.066-0.75-0.114-1.124-0.17l-0.013 0.156c0.135 0.07 0.265 0.151 0.405 0.207 0.354 0.14 0.702 0.308 1.07 0.395 4.083 0.971 7.992 0.474 11.516-1.803 2.221-1.435 4.521-1.707 7.013-1.336 0.252 0.038 0.503 0.083 0.756 0.107 0.234 0.022 0.479 0.255 0.795 3e-3 -2.179-1.574-4.526-2.096-7.094-1.872zm-10.049-9.544c1.475 0.051 2.943-0.142 4.486-1.059-0.452 0.04-0.643 0.04-0.827 0.076-2.126 0.424-4.033-0.04-5.733-1.383-0.623-0.493-1.257-0.974-1.889-1.457-2.503-1.914-5.374-2.555-8.514-2.5 0.05 0.154 0.054 0.26 0.108 0.315 3.417 3.455 7.371 5.836 12.369 6.008zm24.727 17.731c-2.114-2.097-4.952-2.367-7.578-0.537 1.738 0.078 3.043 0.632 4.101 1.728a13 13 0 0 0 1.182 1.106c1.6 1.29 4.311 1.352 5.896 0.155-1.861-0.726-1.861-0.726-3.601-2.452zm-21.058 16.06c-1.858-3.46-4.981-4.24-8.59-4.008a9.667 9.667 0 0 1 2.977 1.39c0.84 0.586 1.547 1.311 2.243 2.055 1.38 1.473 3.534 2.376 4.962 2.07-0.656-0.412-1.238-0.848-1.592-1.507zm0 0-6e-3 6e-3 -0.036-4e-3 0.021 0.018 0.012 0.053zm0 0a0.127 0.127 0 0 0 0.015 0.043c5e-3 8e-3 0.038 0 0.058-2e-3zm0 0-8e-3 0.01 5e-3 0.026 0.024 0.014z" fill="#fd4f00"/>
  </g>
  <path d="m158.79 52.42c-0.59559-0.205-1.2128-0.39896-1.8482-0.5824 0.10444-0.42626 0.2003-0.84699 0.28553-1.2606 1.399-6.7911 0.4843-12.262-2.6393-14.063-2.9951-1.7272-7.8934 0.07369-12.84 4.3789-0.47572 0.41398-0.95276 0.85231-1.4296 1.3117-0.31772-0.30393-0.63493-0.59763-0.95133-0.87857-5.1846-4.6035-10.381-6.5434-13.502-4.7369-2.9923 1.7322-3.8784 6.8755-2.619 13.311 0.12161 0.62165 0.26377 1.2565 0.42452 1.9019-0.7355 0.20879-1.4456 0.43136-2.1249 0.66815-6.0784 2.1192-9.9604 5.4405-9.9604 8.8856 0 3.5581 4.1673 7.127 10.498 9.2909 0.49963 0.17076 1.0181 0.33224 1.5523 0.48553-0.17342 0.6981-0.32426 1.3822-0.45088 2.0494-1.2008 6.3243-0.26306 11.346 2.7212 13.067 3.0825 1.7776 8.2558-0.04959 13.293-4.4529 0.39815-0.34807 0.79774-0.7172 1.198-1.1041 0.51885 0.49963 1.0369 0.97248 1.5521 1.416 4.8794 4.1989 9.6986 5.8944 12.68 4.1683 3.0794-1.7827 4.0802-7.1772 2.7809-13.741-0.0992-0.50126-0.21471-1.0134-0.3444-1.5346 0.3633-0.10741 0.71996-0.21829 1.0677-0.33356 6.5818-2.1807 10.864-5.7061 10.864-9.3118 0-3.4576-4.0072-6.8013-10.208-8.9359zm-1.4276 15.92c-0.31394 0.10393-0.63606 0.20439-0.96431 0.30178-0.72661-2.3003-1.7073-4.7463-2.9073-7.2735 1.1452-2.467 2.0879-4.8817 2.7942-7.1671 0.58732 0.16995 1.1574 0.3492 1.7066 0.53836 5.3129 1.829 8.5537 4.5332 8.5537 6.6168 0 2.2195-3.5 5.1006-9.1829 6.9837zm-2.358 4.6725c0.57454 2.9022 0.6566 5.5262 0.27602 7.5774-0.34194 1.8432-1.0296 3.0721-1.8799 3.5642-1.8094 1.0473-5.6786-0.31405-9.8516-3.905-0.47837-0.41164-0.96022-0.85118-1.4436-1.3164 1.6177-1.7693 3.2346-3.8262 4.8126-6.1105 2.7755-0.24629 5.3977-0.64893 7.7757-1.1986 0.11712 0.47245 0.22116 0.9358 0.31078 1.3888zm-23.846 10.961c-1.7678 0.62431-3.1757 0.64219-4.0268 0.15146-1.811-1.0445-2.5639-5.0765-1.5369-10.485 0.11763-0.6194 0.25763-1.2557 0.419-1.906 2.3519 0.52007 4.9549 0.89431 7.737 1.1199 1.5886 2.2353 3.2521 4.2899 4.9285 6.089-0.36626 0.35359-0.7311 0.69022-1.0939 1.0074-2.2275 1.9471-4.4598 3.3286-6.427 4.0234zm-8.2818-15.647c-2.7995-0.95684-5.1115-2.2005-6.6962-3.5575-1.424-1.2195-2.1429-2.4302-2.1429-3.4126 0-2.0906 3.1168-4.7572 8.3152-6.5696 0.63075-0.21992 1.291-0.42718 1.9762-0.62185 0.71843 2.337 1.6609 4.7804 2.7982 7.2511-1.152 2.5074-2.1079 4.9898-2.8334 7.3541-0.48849-0.14042-0.96175-0.2882-1.4171-0.44374zm2.7761-18.897c-1.079-5.5142-0.36239-9.674 1.4408-10.718 1.9208-1.112 6.1681 0.47347 10.645 4.4483 0.28615 0.25405 0.57342 0.51996 0.8615 0.79507-1.6681 1.7912-3.3164 3.8304-4.8909 6.0525-2.7002 0.25027-5.2849 0.65231-7.6613 1.1907-0.14941-0.60101-0.28175-1.1915-0.39467-1.7688zm24.765 6.1152c-0.5681-0.98127-1.1513-1.9393-1.7459-2.8713 1.8318 0.23157 3.5869 0.53898 5.2351 0.91516-0.49482 1.5859-1.1116 3.244-1.8376 4.9438-0.52078-0.98873-1.0716-1.9856-1.6517-2.9877zm-10.099-9.8368c1.1313 1.2256 2.2642 2.594 3.3786 4.0787-1.1229-0.05306-2.2597-0.08061-3.406-0.08061-1.1354 0-2.2638 0.02696-3.3798 0.07908 1.1154-1.4709 2.2582-2.8374 3.4072-4.0772zm-10.164 9.8537c-0.56748 0.98404-1.1081 1.9755-1.6207 2.9689-0.71424-1.6939-1.3253-3.3595-1.8244-4.9679 1.6381-0.36657 3.3849-0.66631 5.2051-0.89348-0.60295 0.94049-1.191 1.9056-1.76 2.8923zm1.8124 14.657c-1.8806-0.20981-3.6537-0.49411-5.2913-0.85057 0.50709-1.6371 1.1316-3.3383 1.861-5.0686 0.51393 0.99262 1.0567 1.9845 1.6276 2.9707h1.1e-4c0.58158 1.0047 1.1841 1.9888 1.8026 2.9485zm8.4194 6.9592c-1.1625-1.2542-2.322-2.6416-3.4544-4.134 1.0993 0.04314 2.2201 0.06518 3.3591 0.06518 1.1702 0 2.3271-0.02636 3.4657-0.07705-1.118 1.5192-2.2468 2.9088-3.3705 4.1458zm11.707-12.967c0.76738 1.7491 1.4143 3.4414 1.9279 5.0506-1.6646 0.37975-3.4619 0.68562-5.3556 0.9129 0.596-0.94449 1.1843-1.919 1.7624-2.9214 0.58486-1.0142 1.1402-2.0299 1.6653-3.042zm-3.7898 1.8167c-0.89747 1.5561-1.8189 3.0416-2.7542 4.4438-1.7037 0.12181-3.4638 0.18456-5.2577 0.18456-1.7867 0-3.5246-0.05552-5.1981-0.16413-0.9731-1.4206-1.9145-2.9105-2.8063-4.4509h2.1e-4c-0.8894-1.5362-1.708-3.0854-2.4497-4.6258 0.74152-1.5441 1.558-3.095 2.4422-4.6284l-2.1e-4 3.13e-4c0.88664-1.5375 1.8198-3.0202 2.7839-4.4319 1.7075-0.12907 3.4584-0.19641 5.2279-0.19641h1.1e-4c1.7775 0 3.5306 0.0679 5.2376 0.19805 0.94939 1.4014 1.8762 2.8792 2.7663 4.417 0.90023 1.555 1.7272 3.0956 2.475 4.6065-0.74561 1.5369-1.5707 3.093-2.467 4.6473zm5.0596-27.389c1.9226 1.1087 2.6702 5.5801 1.4623 11.444-0.077 0.37414-0.16382 0.75522-0.25804 1.1414-2.382-0.54961-4.9685-0.95859-7.6766-1.2126-1.5776-2.2465-3.2124-4.2889-4.8533-6.0571 0.44118-0.42442 0.88174-0.82911 1.3205-1.211 4.2386-3.6887 8.2002-5.1451 10.005-4.1042zm-13.072 17.591c2.8314 0 5.1268 2.2953 5.1268 5.1268 0 2.8314-2.2954 5.1268-5.1268 5.1268s-5.1268-2.2954-5.1268-5.1268c0-2.8315 2.2954-5.1268 5.1268-5.1268z" fill="#00d8ff" stroke-width=".22427"/>
  <rect x="98.063" y="53.367" width="2.1191" height="14.502" fill="#fd4f00" stroke-width="0" style="paint-order:markers stroke fill"/>
  <rect transform="rotate(89.974)" x="59.036" y="-106.43" width="2.1191" height="14.502" fill="#fd4f00" stroke-width="0" style="paint-order:markers stroke fill"/>
 </g>
</svg>
